<svg id="Layer_1" enable-background="new 0 0 479.903 479.903" height="512" viewBox="0 0 479.903 479.903" width="512" xmlns="http://www.w3.org/2000/svg"><g><path d="m234.652 78.648c-3.327 2.908-3.667 7.962-.76 11.289 2.908 3.326 7.961 3.668 11.288.759 46.581-40.707 115.719-49.905 164.396-21.868 45.794 26.376 63.502 79.434 49.863 149.397-19.79 101.474-94.588 180.37-195.181 205.894-16.155 4.048-32.535 4.047-48.662.007-100.617-25.53-175.416-104.427-195.205-205.9-15.02-77.054 10.063-117.569 33.75-137.989 32.842-28.312 82.985-35.364 130.861-18.406 4.164 1.472 8.737-.706 10.212-4.87s-.705-8.736-4.87-10.212c-76.012-26.924-161.665.747-184.5 82.226-16.644 59.395 1.28 155.236 66.481 227.294 36.89 40.769 85.072 69.596 139.361 83.371 18.729 4.69 37.723 4.692 56.485-.007 110.517-28.041 187.009-115.971 206.974-218.347 36.3-186.195-143.946-227.006-240.493-142.638z"/><path d="m235.793 211.732c-4.324-32.191-17.396-62.624-38.09-88.467-12.751-15.927-38.307-10.36-43.399 9.437-7.014 27.267-4.244 55.935 8.009 82.905 1.828 4.022 6.568 5.806 10.593 3.974 4.022-1.827 5.802-6.569 3.975-10.592-10.727-23.609-13.175-48.61-7.082-72.301 1.82-7.072 10.907-9.055 15.415-3.424 19.096 23.85 31.069 51.961 34.859 81.664-25.225 8.765-42.644 33.59-40.625 61.611-12.864 11.502-20.154 27.706-20.154 45.128 0 43.12 44.179 73.017 83.664 56.078 3.127-1.341 4.675-3.987 4.92-6.656.054-.573.037 1.411.037-23.28l13.045-10.599c3.429-2.786 3.95-7.824 1.164-11.254-2.786-3.429-7.824-3.951-11.254-1.164l-10.955 8.901-10.955-8.901c-3.43-2.787-8.468-2.265-11.254 1.164-2.786 3.43-2.265 8.468 1.164 11.254l13.045 10.6v16.832c-28.519 7.973-56.621-13.617-56.621-42.975 0-13.954 6.359-26.851 17.448-35.382 2.298-1.769 3.459-4.641 3.036-7.509-4.008-27.165 17.118-51.2 44.138-51.2 27.026 0 48.145 24.04 44.138 51.2-.423 2.868.738 5.74 3.036 7.509 24.525 18.869 22.848 56.061-2.859 72.806-3.702 2.411-4.749 7.367-2.337 11.069s7.369 4.749 11.07 2.337c33.605-21.888 36.992-69.518 7.421-95.958.655-9.085-.733-18.313-4.266-27.029 28.906-34.791 39.628-77.086 29.41-116.808-5.092-19.799-30.646-25.362-43.399-9.437-12.746 15.918-22.616 33.526-29.337 52.338-1.486 4.16.681 8.738 4.842 10.225 4.16 1.49 8.739-.68 10.226-4.842 6.123-17.136 15.125-33.191 26.759-47.721 4.5-5.62 13.592-3.659 15.415 3.424 8.474 32.946.251 68.141-22.553 97.989-11.972-15.141-30.853-24.348-51.689-22.946z"/><path d="m213.917 283.001v8c0 4.418 3.582 8 8 8s8-3.582 8-8v-8c0-4.418-3.582-8-8-8s-8 3.582-8 8z"/><path d="m249.917 283.001v8c0 4.418 3.582 8 8 8s8-3.582 8-8v-8c0-4.418-3.582-8-8-8s-8 3.582-8 8z"/></g></svg>